<svg width="19" height="20" viewBox="0 0 19 20" fill="none" xmlns="http://www.w3.org/2000/svg">
<path d="M18.6115 7.41964C18.5539 7.24983 18.4478 7.10061 18.3063 6.99043C18.1648 6.88024 17.9941 6.81389 17.8154 6.79959L12.5862 6.38408L10.3234 1.37506C10.2513 1.21373 10.1341 1.07671 9.9859 0.980522C9.83768 0.884337 9.66479 0.833105 9.48809 0.833008C9.3114 0.832911 9.13845 0.883954 8.99013 0.979976C8.8418 1.076 8.72444 1.2129 8.65219 1.37415L6.38938 6.38408L1.16023 6.79959C0.984535 6.8135 0.816574 6.87774 0.676436 6.98462C0.536298 7.0915 0.429918 7.23648 0.370023 7.40224C0.310128 7.56799 0.299253 7.74749 0.338701 7.91926C0.378149 8.09103 0.466248 8.2478 0.592459 8.37081L4.45677 12.1379L3.09009 18.0559C3.04859 18.235 3.06189 18.4225 3.12826 18.594C3.19463 18.7655 3.31102 18.913 3.4623 19.0175C3.61359 19.1221 3.7928 19.1787 3.97667 19.1801C4.16054 19.1815 4.34059 19.1276 4.49345 19.0254L9.4878 15.6958L14.4821 19.0254C14.6384 19.1291 14.8226 19.1825 15.0101 19.1784C15.1976 19.1743 15.3794 19.1129 15.5309 19.0024C15.6824 18.8919 15.7965 18.7377 15.8578 18.5604C15.919 18.3832 15.9246 18.1914 15.8736 18.0109L14.196 12.1406L18.3565 8.39649C18.629 8.15067 18.7289 7.76727 18.6115 7.41964Z" fill="#F3CD03"/>
</svg>
